<?xml version="1.0" encoding="UTF-8" standalone="no"?>
<!-- Created with Inkscape (http://www.inkscape.org/) -->

<svg
   width="4291.606"
   height="2282.2871"
   viewBox="0 0 4291.6059 2282.2871"
   version="1.1"
   id="svg1"
   inkscape:version="1.3.2 (091e20ef0f, 2023-11-25)"
   sodipodi:docname="Enter the VOID - for bright bg (draft).svg"
   inkscape:export-filename="Enter the VOID bright bg - 200 dpi.png"
   inkscape:export-xdpi="200"
   inkscape:export-ydpi="200"
   xmlns:inkscape="http://www.inkscape.org/namespaces/inkscape"
   xmlns:sodipodi="http://sodipodi.sourceforge.net/DTD/sodipodi-0.dtd"
   xmlns="http://www.w3.org/2000/svg"
   xmlns:svg="http://www.w3.org/2000/svg">
  <sodipodi:namedview
     id="namedview1"
     pagecolor="#474747"
     bordercolor="#000000"
     borderopacity="0.25"
     inkscape:showpageshadow="2"
     inkscape:pageopacity="0.0"
     inkscape:pagecheckerboard="0"
     inkscape:deskcolor="#d1d1d1"
     inkscape:document-units="px"
     inkscape:zoom="0.067122396"
     inkscape:cx="2026.1494"
     inkscape:cy="1646.2464"
     inkscape:window-width="1920"
     inkscape:window-height="1042"
     inkscape:window-x="0"
     inkscape:window-y="38"
     inkscape:window-maximized="1"
     inkscape:current-layer="layer1" />
  <defs
     id="defs1" />
  <g
     inkscape:label="Ebene 1"
     inkscape:groupmode="layer"
     id="layer1"
     transform="translate(-1396.463,-1500.0015)">
    <path
       d="m 2833.9594,3046.9169 c 5.874,-5.874 7.832,-11.748 7.832,-15.664 0,-9.79 -7.832,-16.643 -18.601,-16.643 h -55.8031 c -21.538,0 -37.202,6.853 -50.908,19.58 l -394.5374,392.5794 -379.8524,-392.5794 c -12.727,-12.727 -28.391,-19.58 -50.9081,-19.58 H 1480.98 c -15.664,0 -22.517,6.853 -22.517,15.664 0,4.895 1.958,11.748 8.811,17.622 l 604.0436,614.8127 c 11.748,12.727 25.454,19.58 43.0761,19.58 h 64.614 c 15.664,0 29.3701,-6.853 41.1181,-19.58 z M 3596.6,3682.2886 c 192.8632,0 323.0704,-145.8712 323.0704,-333.8394 0,-190.9051 -128.2492,-333.8393 -323.0704,-333.8393 h -479.7104 c -193.8422,0 -322.0914,139.9971 -322.0914,333.8393 0,188.9472 131.1862,333.8394 322.0914,333.8394 z m -67.551,-293.7003 c 0,133.1441 -35.2441,178.1782 -115.5221,178.1782 h -133.1442 c -74.4041,0 -107.6901,-46.0131 -107.6901,-178.1782 v -106.7111 c 0,-118.4591 30.349,-152.7242 107.6901,-152.7242 h 133.1442 c 85.173,0 115.5221,32.3071 115.5221,152.7242 z m 844.8771,293.7003 c 16.643,0 25.454,-8.811 25.454,-26.4331 v -615.7916 c 0,-16.643 -8.811,-25.454 -25.454,-25.454 h -337.7553 c -16.643,0 -25.4541,8.811 -25.4541,25.454 v 615.7916 c 0,17.6221 8.8111,26.4331 25.4541,26.4331 z m 930.0515,0 c 186.0102,0 322.0913,-139.9972 322.0913,-333.8394 0,-190.9051 -127.2701,-333.8393 -322.0913,-333.8393 h -787.1168 c -16.643,0 -25.454,8.811 -25.454,25.454 v 615.7916 c 0,17.6221 8.811,26.4331 25.454,26.4331 z m -113.5641,-293.7003 c 0,132.1651 -34.2651,178.1782 -113.5642,178.1782 H 4879.0911 V 3129.153 h 197.7582 c 83.2151,0 113.5642,32.3071 113.5642,152.7242 z"
       id="text5"
       style="font-size:979.001px;font-family:Sofachrome;-inkscape-font-specification:Sofachrome;fill:#ffffff;fill-rule:evenodd;stroke:#000000;stroke-width:124;stroke-linecap:round;stroke-linejoin:round;paint-order:stroke fill markers"
       aria-label="void" />
    <path
       d="m 2553.715,1696.487 c 9.0522,0 13.8445,-3.1949 13.8445,-9.5847 v -43.1309 c 0,-6.3898 -4.7923,-9.5847 -13.8445,-9.5847 h -254.5259 c -9.5847,0 -14.377,4.7924 -14.377,13.8445 v 34.6113 c 0,9.0522 4.7923,13.8445 14.377,13.8445 z m 5.3248,166.6666 c 9.5847,0 14.377,-4.7924 14.377,-14.377 v -34.0788 c 0,-9.5847 -4.7923,-14.377 -14.377,-14.377 h -249.2011 c -43.6635,0 -62.8328,-24.4941 -62.8328,-96.9115 v -58.0405 c 0,-65.4951 16.5069,-83.067 62.8328,-83.067 h 247.6037 c 9.5846,0 14.3769,-4.7923 14.3769,-14.377 v -34.0788 c 0,-9.0522 -4.7923,-13.8445 -14.3769,-13.8445 h -372.2043 c -104.8987,0 -174.6537,77.2098 -174.6537,181.576 0,105.4313 74.0148,181.5761 174.6537,181.5761 z m 676.7837,0 c 9.5846,0 14.377,-4.7924 14.377,-14.377 V 1513.846 c 0,-9.0522 -4.7924,-13.8445 -14.377,-13.8445 h -68.6901 c -9.5846,0 -14.377,4.7923 -14.377,13.8445 v 149.0947 l -396.1658,-152.8221 c -22.8967,-9.0521 -33.5463,-10.1171 -56.9755,-10.1171 h -65.4952 c -9.5846,0 -14.377,4.7923 -14.377,13.8445 v 334.9306 c 0,9.5846 4.7924,14.377 14.377,14.377 h 68.6901 c 9.5846,0 14.377,-4.7924 14.377,-14.377 v -154.952 l 424.3873,158.6793 c 23.4292,8.5197 36.2087,10.6497 57.508,10.6497 z m 412.14,0 c 6.3898,0 9.5847,-2.13 9.5847,-6.9223 v -293.9295 h 156.0169 c 6.9222,0 10.1171,-1.5975 10.1171,-5.8573 v -49.5207 c 0,-4.7924 -3.1949,-6.9223 -10.1171,-6.9223 h -522.3639 c -6.9222,0 -10.1171,2.1299 -10.1171,6.9223 v 49.5207 c 0,4.2598 3.1949,5.8573 10.1171,5.8573 h 155.4845 v 293.9295 c 0,4.7923 3.1949,6.9223 10.1171,6.9223 z m 718.3166,-166.6666 c 9.0521,0 13.8445,-3.1949 13.8445,-9.5847 v -43.1309 c 0,-6.3898 -4.7924,-9.5847 -13.8445,-9.5847 h -254.526 c -9.5846,0 -14.377,4.7924 -14.377,13.8445 v 34.6113 c 0,9.0522 4.7924,13.8445 14.377,13.8445 z m 5.3248,166.6666 c 9.5846,0 14.377,-4.7924 14.377,-14.377 v -34.0788 c 0,-9.5847 -4.7924,-14.377 -14.377,-14.377 h -249.2011 c -43.6635,0 -62.8328,-24.4941 -62.8328,-96.9115 v -58.0405 c 0,-65.4951 16.5069,-83.067 62.8328,-83.067 h 247.6036 c 9.5847,0 14.377,-4.7923 14.377,-14.377 v -34.0788 c 0,-9.0522 -4.7923,-13.8445 -14.377,-13.8445 h -372.2042 c -104.8988,0 -174.6538,77.2098 -174.6538,181.576 0,105.4313 74.0149,181.5761 174.6538,181.5761 z m 692.7579,0 c 6.3898,0 9.5847,-4.2599 9.5847,-8.5197 0,-2.6624 -1.065,-6.3898 -3.7274,-8.5197 L 4923.2554,1695.422 c 56.9754,-8.5197 103.8338,-42.5984 103.8338,-102.7688 0,-54.8455 -48.4558,-92.6517 -112.886,-92.6517 h -465.3884 c -9.5847,0 -14.377,4.7923 -14.377,13.8445 v 334.9306 c 0,9.5846 4.7923,14.377 14.377,14.377 h 182.641 c 9.5846,0 14.377,-4.7924 14.377,-14.377 v -286.4748 h 118.7432 c 33.5463,0 50.5857,12.7795 50.5857,35.6762 0,22.8967 -17.0394,36.2087 -50.5857,36.2087 h -72.9499 c -9.5846,0 -13.8445,4.7924 -13.8445,13.8445 v 16.5069 c 0,9.5847 3.1949,13.8446 9.0522,19.7018 l 160.2768,164.5367 c 9.5846,10.1171 21.8317,14.377 35.1437,14.377 z"
       id="text1"
       style="font-size:532.481px;font-family:Sofachrome;-inkscape-font-specification:Sofachrome;fill-rule:evenodd;stroke-width:200;stroke-linecap:round;stroke-linejoin:round;paint-order:stroke fill markers"
       aria-label="enter" />
    <path
       d="m 3025.2269,2589.4578 c 6.3898,0 9.5847,-2.13 9.5847,-6.9223 V 2288.606 h 156.0169 c 6.9223,0 10.1172,-1.5975 10.1172,-5.8573 v -49.5207 c 0,-4.7924 -3.1949,-6.9223 -10.1172,-6.9223 h -522.3639 c -6.9222,0 -10.1171,2.1299 -10.1171,6.9223 v 49.5207 c 0,4.2598 3.1949,5.8573 10.1171,5.8573 h 155.4845 v 293.9295 c 0,4.7923 3.1949,6.9223 10.1171,6.9223 z m 776.8895,0 c 9.0521,0 13.8445,-4.7924 13.8445,-14.377 v -334.9306 c 0,-9.0522 -4.7924,-13.8445 -13.8445,-13.8445 h -183.1735 c -9.5847,0 -14.377,4.7923 -14.377,13.8445 v 120.3407 h -159.7443 v -120.3407 c 0,-9.0522 -4.7923,-13.8445 -13.8445,-13.8445 h -183.1735 c -9.5846,0 -14.377,4.7923 -14.377,13.8445 v 334.9306 c 0,9.5846 4.7924,14.377 14.377,14.377 h 183.1735 c 9.0522,0 13.8445,-4.7924 13.8445,-14.377 v -152.2896 h 159.7443 v 152.2896 c 0,9.5846 4.7923,14.377 14.377,14.377 z m 604.3663,-166.6666 c 9.0522,0 13.8445,-3.1949 13.8445,-9.5847 v -43.1309 c 0,-6.3898 -4.7923,-9.5847 -13.8445,-9.5847 h -254.5259 c -9.5847,0 -14.377,4.7924 -14.377,13.8445 v 34.6113 c 0,9.0522 4.7923,13.8445 14.377,13.8445 z m 5.3248,166.6666 c 9.5847,0 14.377,-4.7924 14.377,-14.377 v -34.0788 c 0,-9.5847 -4.7923,-14.377 -14.377,-14.377 h -249.2011 c -43.6635,0 -62.8328,-24.4941 -62.8328,-96.9115 v -58.0405 c 0,-65.4951 16.5069,-83.067 62.8328,-83.067 h 247.6037 c 9.5846,0 14.3769,-4.7923 14.3769,-14.377 v -34.0788 c 0,-9.0522 -4.7923,-13.8445 -14.3769,-13.8445 h -372.2043 c -104.8987,0 -174.6537,77.2098 -174.6537,181.576 0,105.4313 74.0148,181.5761 174.6537,181.5761 z"
       id="text3"
       style="font-size:532.481px;font-family:Sofachrome;-inkscape-font-specification:Sofachrome;fill-rule:evenodd;stroke-width:200;stroke-linecap:round;stroke-linejoin:round;paint-order:stroke fill markers"
       aria-label="the" />
  </g>
</svg>
