<?xml version="1.0" encoding="UTF-8" standalone="no"?>
<!-- Created with Inkscape (http://www.inkscape.org/) -->

<svg
   width="1852.8286"
   height="346.20081"
   viewBox="0 0 1852.8286 346.2008"
   version="1.1"
   id="svg1"
   xml:space="preserve"
   sodipodi:docname="VOID text only - for dark bg (draft).svg"
   inkscape:version="1.3.2 (091e20ef0f, 2023-11-25)"
   inkscape:export-filename="VOID logo text for dark bg - 200 dip.png"
   inkscape:export-xdpi="200"
   inkscape:export-ydpi="200"
   xmlns:inkscape="http://www.inkscape.org/namespaces/inkscape"
   xmlns:sodipodi="http://sodipodi.sourceforge.net/DTD/sodipodi-0.dtd"
   xmlns="http://www.w3.org/2000/svg"
   xmlns:svg="http://www.w3.org/2000/svg"><sodipodi:namedview
     id="namedview1"
     pagecolor="#ffffff"
     bordercolor="#000000"
     borderopacity="0.25"
     inkscape:showpageshadow="2"
     inkscape:pageopacity="0.0"
     inkscape:pagecheckerboard="0"
     inkscape:deskcolor="#d1d1d1"
     inkscape:zoom="0.1561363"
     inkscape:cx="1242.5042"
     inkscape:cy="-605.24044"
     inkscape:window-width="1920"
     inkscape:window-height="1042"
     inkscape:window-x="0"
     inkscape:window-y="38"
     inkscape:window-maximized="1"
     inkscape:current-layer="svg1" /><defs
     id="defs1" /><path
     d="m 633.03682,39.33231 c 4.34312,-3.474496 6.94899,-6.51468 6.94899,-9.554864 0,-3.040184 -1.73725,-4.777432 -5.64606,-4.777432 h -28.23028 c -9.98918,0 -18.2411,3.040184 -26.49303,8.68624 L 326.41254,207.84537 236.07564,33.686254 c -3.04019,-6.080368 -9.12056,-8.68624 -18.67542,-8.68624 H 38.897984 c -9.554865,0 -13.897985,4.34312 -13.897985,9.989176 0,1.302936 0,3.474496 0.868624,4.777432 L 172.66608,312.51457 c 3.04019,5.64605 7.38331,8.68624 15.20092,8.68624 h 28.6646 c 6.94899,0 14.33229,-3.04019 22.14991,-8.68624 z m 212.37808,281.8685 c 113.35544,0 225.8422,-101.62902 225.8422,-203.69234 0,-53.420375 -32.5734,-92.508456 -93.81135,-92.508456 H 764.63287 c -115.527,0 -224.97362,100.760386 -224.97362,202.389396 0,53.42038 32.5734,93.8114 92.94277,93.8114 z M 873.21087,190.9072 c -26.05872,59.06644 -50.38019,79.04479 -85.99378,79.04479 h -59.50074 c -18.67542,0 -28.6646,-6.51468 -28.6646,-23.45285 0,-12.59505 5.21175,-30.40184 16.50386,-55.59194 l 20.84698,-47.34001 C 759.42112,91.015439 780.2681,75.814519 814.14444,75.814519 h 59.06643 c 23.01854,0 35.17927,5.646056 35.17927,22.149913 0,10.423488 -4.77743,25.190098 -14.33229,45.602758 z m 317.04753,130.29361 c 7.3833,0 13.0294,-3.90881 16.5039,-11.72643 L 1328.3696,36.292126 c 1.303,-2.17156 1.7373,-3.908808 1.7373,-5.646056 0,-3.908808 -2.6059,-5.646056 -8.252,-5.646056 h -149.4033 c -7.3833,0 -13.0294,3.908808 -16.5039,11.292112 L 1033.9061,309.47438 c -0.8686,2.60587 -1.303,4.34312 -1.303,6.51468 0,3.4745 2.6059,5.21175 7.8177,5.21175 z m 412.5966,0 c 109.4466,0 224.9736,-97.72021 224.9736,-203.69234 0,-53.420375 -32.1391,-92.508456 -92.9428,-92.508456 H 1385.699 c -7.8176,0 -13.0294,3.908808 -16.5039,11.292112 L 1247.1535,309.47438 c -0.8687,2.60587 -1.303,4.34312 -1.303,6.51468 0,3.4745 2.6059,5.21175 7.8176,5.21175 z m 7.8176,-130.29361 c -26.493,58.63212 -50.8145,79.04479 -85.5595,79.04479 h -87.731 l 85.9938,-194.137471 h 88.1653 c 22.1499,0 33.8764,5.646056 33.8764,22.149913 0,9.989178 -4.7775,25.190098 -13.898,45.602758 z"
     id="text1"
     style="font-style:italic;font-size:434.312px;font-family:Sofachrome;-inkscape-font-specification:'Sofachrome Italic';fill-rule:evenodd;stroke:#ffffff;stroke-width:50;stroke-linecap:round;stroke-linejoin:round;paint-order:stroke fill markers"
     aria-label="VOID" /></svg>
