<?xml version="1.0" encoding="UTF-8" standalone="no"?>
<!-- Created with Inkscape (http://www.inkscape.org/) -->

<svg
   width="1852.8286"
   height="1496.4951"
   viewBox="0 0 1852.8286 1496.4951"
   version="1.1"
   id="svg1"
   xml:space="preserve"
   sodipodi:docname="VOID logo with text - for dark bg (draft).svg"
   inkscape:version="1.3.2 (091e20ef0f, 2023-11-25)"
   inkscape:export-filename="VOID logo text for dark bg - 200 dip.png"
   inkscape:export-xdpi="200"
   inkscape:export-ydpi="200"
   xmlns:inkscape="http://www.inkscape.org/namespaces/inkscape"
   xmlns:sodipodi="http://sodipodi.sourceforge.net/DTD/sodipodi-0.dtd"
   xmlns="http://www.w3.org/2000/svg"
   xmlns:svg="http://www.w3.org/2000/svg"><sodipodi:namedview
     id="namedview1"
     pagecolor="#ffffff"
     bordercolor="#000000"
     borderopacity="0.25"
     inkscape:showpageshadow="2"
     inkscape:pageopacity="0.0"
     inkscape:pagecheckerboard="0"
     inkscape:deskcolor="#d1d1d1"
     inkscape:zoom="0.31227259"
     inkscape:cx="976.71076"
     inkscape:cy="529.98568"
     inkscape:window-width="1920"
     inkscape:window-height="1042"
     inkscape:window-x="0"
     inkscape:window-y="38"
     inkscape:window-maximized="1"
     inkscape:current-layer="svg1" /><defs
     id="defs1" /><path
     id="path2"
     style="fill:#acc4aa;fill-opacity:1;fill-rule:evenodd;stroke-width:10.015"
     d="M 927.94214,0 A 748.24869,748.24869 0 0 0 488.53223,144.89459 L 660.56678,316.92914 A 508.61296,508.61296 0 0 1 927.94212,239.63956 508.61296,508.61296 0 0 1 1436.5577,748.25 a 508.61296,508.61296 0 0 1 -76.5726,268.1024 l 172.5395,172.5395 A 748.24869,748.24869 0 0 0 1676.1921,748.24499 748.24869,748.24869 0 0 0 1417.9409,182.75925 748.24869,748.24869 0 0 0 927.94214,0 Z m -16.59705,516.16928 a 232.67153,232.67153 0 0 0 -147.92416,67.55452 232.67153,232.67153 0 0 0 0,329.04742 232.67153,232.67153 0 0 0 329.04737,2e-5 232.67153,232.67153 0 0 0 0,-329.04744 232.67153,232.67153 0 0 0 -181.12321,-67.55452 z" /><path
     id="path4"
     style="fill:#477f62;fill-opacity:1;fill-rule:evenodd;stroke-width:32.2074"
     d="m 324.59675,308.83513 a 748.24871,748.24871 0 0 0 -144.89961,439.40989 748.24871,748.24871 0 0 0 748.245,748.25008 748.24871,748.24871 0 0 0 440.64696,-143.6676 L 1196.0547,1180.293 a 508.61297,508.61297 0 0 1 -268.11256,76.5727 508.61297,508.61297 0 0 1 -508.61048,-508.61564 508.61297,508.61297 0 0 1 77.2946,-267.38543 z" /><path
     d="m 633.03682,611.7432 c 4.34312,-3.4745 6.94899,-6.51468 6.94899,-9.55487 0,-3.04018 -1.73725,-4.77743 -5.64606,-4.77743 h -28.23028 c -9.98918,0 -18.2411,3.04019 -26.49303,8.68624 l -253.2039,174.15912 -90.3369,-174.15912 c -3.04019,-6.08037 -9.12056,-8.68624 -18.67542,-8.68624 H 38.897984 c -9.554865,0 -13.897985,4.34312 -13.897985,9.98918 0,1.30293 0,3.47449 0.868624,4.77743 L 172.66608,884.92545 c 3.04019,5.64606 7.38331,8.68624 15.20092,8.68624 h 28.6646 c 6.94899,0 14.33229,-3.04018 22.14991,-8.68624 z M 845.4149,893.61169 c 113.35544,0 225.8422,-101.62901 225.8422,-203.69233 0,-53.42038 -32.5734,-92.50846 -93.81135,-92.50846 H 764.63287 c -115.527,0 -224.97362,100.76039 -224.97362,202.3894 0,53.42038 32.5734,93.81139 92.94277,93.81139 z m 27.79597,-130.2936 c -26.05872,59.06643 -50.38019,79.04479 -85.99378,79.04479 h -59.50074 c -18.67542,0 -28.6646,-6.51468 -28.6646,-23.45285 0,-12.59505 5.21175,-30.40184 16.50386,-55.59194 l 20.84698,-47.34001 c 23.01853,-52.55175 43.86551,-67.75267 77.74185,-67.75267 h 59.06643 c 23.01854,0 35.17927,5.64605 35.17927,22.14991 0,10.42349 -4.77743,25.1901 -14.33229,45.60276 z m 317.04753,130.2936 c 7.3833,0 13.0294,-3.9088 16.5039,-11.72642 l 121.6073,-273.18226 c 1.303,-2.17156 1.7373,-3.9088 1.7373,-5.64605 0,-3.90881 -2.6059,-5.64606 -8.252,-5.64606 h -149.4033 c -7.3833,0 -13.0294,3.90881 -16.5039,11.29211 l -122.0416,273.18226 c -0.8686,2.60587 -1.303,4.34312 -1.303,6.51468 0,3.4745 2.6059,5.21174 7.8177,5.21174 z m 412.5966,0 c 109.4466,0 224.9736,-97.7202 224.9736,-203.69233 0,-53.42038 -32.1391,-92.50846 -92.9428,-92.50846 H 1385.699 c -7.8176,0 -13.0294,3.90881 -16.5039,11.29211 l -122.0416,273.18226 c -0.8687,2.60587 -1.303,4.34312 -1.303,6.51468 0,3.4745 2.6059,5.21174 7.8176,5.21174 z m 7.8176,-130.2936 c -26.493,58.63212 -50.8145,79.04479 -85.5595,79.04479 h -87.731 l 85.9938,-194.13747 h 88.1653 c 22.1499,0 33.8764,5.64605 33.8764,22.14991 0,9.98918 -4.7775,25.1901 -13.898,45.60276 z"
     id="text1"
     style="font-style:italic;font-size:434.312px;font-family:Sofachrome;-inkscape-font-specification:'Sofachrome Italic';fill-rule:evenodd;stroke:#ffffff;stroke-width:50;stroke-linecap:round;stroke-linejoin:round;paint-order:stroke fill markers"
     aria-label="VOID" /></svg>
